<svg width="770" height="150" 
    xmlns="http://www.w3.org/2000/svg" style="background: transparent;">
    <style>
    .line-red {
      stroke: red;
      stroke-width: 2;
    }
    .font-red {
      font-family: sans-serif;
      font-weight: 600;
      font-size: 12px;
      font-color: red;
    }
    .fill-red {
      fill: red;
    }
  </style>
    <polyline class="line-red" points="0,50 50,0 50,100"/>
    <polyline class="line-red" points="80,0 130,0 130,50 80,100 130,100"/>
    <polyline class="line-red" points="160,0 210,0 160,50 210,50 160,100"/>
    <polyline class="line-red" points="240,0 240,50 290,50 290,0 290,100"/>
    <polyline class="line-red" points="370,0 320,0 320,50 370,50 370,100 320,100"/>
    <polyline class="line-red" points="450,0 400,50 450,50 450,100 400,100 400,50"/>
    <polyline class="line-red" points="480,0 530,0 480,50 480,100"/>
    <polyline class="line-red" points="560,50 560,0 610,0 610,50 560,50 560,100 610,100 610,50"/>
    <polyline class="line-red" points="690,50 640,50 640,0 690,0 690,50 640,100"/>
    <polyline class="line-red" points="720,0 770,0 770,100 720,100 720,0"/>
</svg>